<?xml version="1.0" standalone="no"?>
<!DOCTYPE svg PUBLIC "-//W3C//DTD SVG 20010904//EN"
 "http://www.w3.org/TR/2001/REC-SVG-20010904/DTD/svg10.dtd">
<svg version="1.0" xmlns="http://www.w3.org/2000/svg"
 width="290.000000pt" height="290.000000pt" viewBox="0 0 290.000000 290.000000"
 preserveAspectRatio="xMidYMid meet">
<metadata>
Created by potrace 1.11, written by Peter Selinger 2001-2013
</metadata>
<g transform="translate(0.000000,290.000000) scale(0.100000,-0.100000)"
fill="#000000" stroke="none">
<path d="M1239 2872 c-30 -10 -73 -28 -95 -40 -21 -11 -64 -23 -95 -25 -73 -7
-145 -44 -208 -107 -27 -27 -57 -50 -65 -50 -24 0 -112 -93 -139 -146 -13 -27
-32 -76 -42 -109 -10 -33 -29 -85 -44 -115 -24 -51 -26 -64 -25 -190 0 -114 4
-143 22 -190 12 -30 22 -71 22 -90 0 -19 7 -66 16 -105 8 -38 17 -82 21 -97 5
-26 4 -27 -29 -21 -44 7 -73 -9 -94 -49 -13 -26 -15 -49 -11 -118 8 -106 18
-141 62 -214 19 -32 44 -90 55 -130 19 -65 47 -107 79 -117 6 -2 18 -30 26
-61 27 -105 54 -147 183 -280 85 -88 119 -128 106 -128 -74 0 -179 -74 -173
-122 2 -13 -1 -29 -5 -37 -5 -8 -12 -28 -15 -45 -6 -29 -11 -32 -96 -52 -86
-20 -148 -44 -159 -62 -3 -5 6 -14 19 -20 20 -9 33 -7 67 8 65 30 71 27 66
-25 -4 -30 -1 -48 8 -56 10 -8 15 -2 23 29 14 51 25 59 89 68 57 7 57 7 41
-33 -6 -15 -13 -49 -16 -76 -3 -38 -1 -47 11 -47 9 0 16 8 17 18 0 13 2 14 6
2 4 -8 12 -20 18 -26 14 -14 104 -17 106 -3 1 5 2 13 3 18 0 5 4 12 8 16 10
11 -2 35 -18 35 -8 0 -14 5 -14 10 0 7 6 7 19 0 28 -14 35 -29 22 -44 -8 -10
-6 -18 9 -31 11 -10 23 -15 27 -11 4 4 1 11 -7 16 -11 7 -12 12 -4 20 8 8 17
5 32 -14 18 -23 62 -37 62 -19 0 4 -38 44 -85 89 -62 59 -84 86 -79 98 5 14
16 9 63 -31 58 -50 78 -69 106 -106 15 -20 16 -20 10 -2 -4 11 -7 24 -8 29 -1
5 -36 43 -78 85 -41 42 -90 97 -108 124 -17 26 -38 47 -46 47 -11 0 -9 -6 6
-21 24 -24 24 -26 -18 -32 -33 -5 -47 13 -22 29 6 3 9 19 5 35 -8 41 43 78
118 86 54 6 57 5 85 -28 20 -23 26 -36 18 -41 -6 -4 -14 -2 -18 4 -11 17 -32
-32 -32 -74 0 -39 16 -66 89 -157 22 -27 34 -52 31 -63 -3 -10 -1 -18 4 -18 5
0 9 -13 9 -30 0 -20 5 -30 15 -30 8 0 15 9 15 19 0 20 1 20 57 0 73 -25 306
-28 373 -4 23 8 47 12 53 8 6 -3 7 -1 3 5 -4 7 -2 12 3 12 6 0 11 -9 11 -20 0
-11 7 -20 15 -20 9 0 15 9 15 24 0 25 19 84 32 101 4 5 21 26 38 45 17 19 40
55 52 79 20 41 20 47 7 85 -12 34 -18 40 -37 38 -30 -4 -28 9 7 42 27 26 33
28 83 21 53 -7 113 -30 124 -46 10 -17 -7 -47 -29 -53 -12 -3 -40 -31 -62 -62
-22 -31 -63 -77 -91 -101 -28 -25 -57 -55 -64 -68 -7 -14 -17 -22 -21 -19 -5
3 -6 -3 -2 -12 4 -12 3 -15 -5 -10 -8 5 -10 1 -5 -10 6 -15 9 -14 28 9 20 27
43 38 29 15 -5 -7 -3 -8 5 -3 9 5 9 11 3 17 -12 12 0 25 71 82 36 29 47 34 47
22 0 -11 5 -15 13 -10 6 3 -31 -36 -83 -87 -83 -83 -92 -94 -72 -97 15 -2 31
5 46 22 12 15 25 23 29 20 4 -4 0 -16 -10 -26 -16 -18 -8 -23 19 -13 9 4 13
18 12 36 -1 22 1 28 8 21 6 -6 11 -22 11 -36 0 -21 4 -26 23 -26 18 0 22 4 18
18 -5 16 -5 16 6 0 11 -18 41 -24 53 -11 4 4 -5 20 -20 37 l-28 31 33 -30 c28
-25 34 -27 42 -15 7 11 10 12 10 2 0 -8 6 -12 13 -9 7 2 12 21 12 44 0 23 -3
39 -7 36 -5 -2 -8 4 -8 14 0 10 -3 28 -6 41 -4 12 -2 22 4 22 6 0 13 -8 15
-17 4 -17 5 -17 6 0 1 17 21 25 21 8 0 -4 11 -6 25 -3 14 2 32 -2 41 -9 14
-12 14 -14 -3 -20 -16 -7 -15 -8 5 -8 17 -1 22 -7 22 -27 0 -16 5 -24 13 -21
7 3 11 21 10 51 -1 25 2 46 7 46 5 0 28 -8 52 -19 32 -14 49 -16 66 -8 12 6
22 13 22 18 0 11 -101 59 -124 59 -12 0 -41 6 -66 14 -35 10 -46 18 -48 37 -2
13 -10 32 -17 42 -7 10 -11 27 -8 37 13 50 -62 110 -155 125 l-43 7 126 124
c134 132 161 173 186 286 8 41 18 59 31 64 26 8 44 39 68 119 12 39 35 91 52
117 39 62 57 123 64 224 6 74 5 86 -15 118 -24 39 -55 52 -97 42 -24 -6 -26
-5 -20 16 26 96 39 220 40 398 1 179 -1 200 -22 255 -47 124 -146 235 -211
235 l-31 0 0 58 c0 78 -27 126 -110 192 -76 61 -132 89 -178 90 -18 0 -52 10
-75 22 -44 23 -68 25 -302 34 -98 3 -130 1 -176 -14z m699 -561 c23 0 42 -5
42 -11 0 -6 -11 -8 -27 -5 -19 4 -22 3 -10 -3 10 -4 18 -11 18 -15 -1 -4 6
-21 14 -37 9 -17 13 -36 9 -43 -5 -9 -4 -9 6 0 10 9 9 18 -8 47 -17 29 -18 35
-5 40 8 3 19 3 24 0 18 -11 81 -153 73 -165 -4 -7 -3 -9 3 -6 13 8 27 -39 17
-55 -5 -7 -3 -8 5 -4 8 5 11 3 10 -5 -1 -8 3 -27 10 -43 6 -16 9 -31 6 -34 -2
-3 0 -11 5 -17 6 -7 11 -31 13 -54 1 -22 5 -41 8 -41 4 0 9 -8 12 -17 2 -10 8
-27 13 -37 6 -15 4 -18 -7 -12 -8 4 -6 1 5 -8 10 -8 19 -27 21 -43 1 -15 6
-37 11 -48 5 -11 9 -126 9 -255 0 -235 -5 -340 -16 -340 -3 0 -11 -11 -19 -24
-8 -16 -18 -22 -29 -19 -9 4 -4 -6 12 -20 28 -27 38 -49 12 -27 -8 7 -15 10
-15 7 0 -3 -3 -12 -6 -20 -4 -12 0 -14 18 -11 20 5 21 4 6 -6 -10 -6 -18 -18
-18 -26 0 -8 5 -12 10 -9 6 4 5 -6 -2 -22 -18 -43 -27 -51 -48 -46 -14 4 -20
0 -20 -10 0 -20 17 -31 23 -15 3 10 8 10 17 2 9 -9 8 -18 -4 -40 -8 -16 -15
-23 -16 -16 0 6 -5 12 -11 12 -6 0 -9 -9 -6 -20 8 -30 -39 -83 -62 -70 -15 8
-18 5 -15 -16 2 -20 -1 -24 -17 -19 -14 5 -19 2 -19 -14 0 -22 -40 -66 -49
-54 -3 5 -14 9 -23 9 -18 2 -14 -24 6 -39 7 -6 4 -7 -6 -4 -16 6 -43 -15 -33
-25 3 -3 -2 -11 -12 -19 -11 -9 -14 -10 -9 -1 4 7 2 12 -6 12 -8 0 -6 5 5 11
21 12 22 25 1 33 -8 3 -12 2 -9 -3 3 -5 0 -13 -6 -17 -8 -4 -9 -3 -5 4 4 7 3
12 -1 12 -5 0 -9 10 -10 21 -2 29 -18 45 -28 28 -5 -8 -4 -10 4 -5 8 6 10 0 5
-18 -3 -14 -2 -26 3 -26 17 0 32 -45 21 -63 -6 -11 -5 -17 2 -17 6 0 8 -5 4
-11 -5 -8 -9 -8 -14 1 -5 9 -9 9 -14 1 -4 -6 -5 -15 -2 -20 6 -9 -23 -38 -33
-33 -3 1 -6 -4 -6 -10 0 -7 -7 -13 -15 -13 -14 0 -30 -16 -32 -32 0 -5 -9 -14
-19 -21 -14 -10 -24 -10 -40 -2 -19 11 -20 10 -14 -10 5 -15 4 -20 -4 -16 -6
4 -11 2 -11 -5 0 -7 -3 -10 -6 -6 -3 3 -17 2 -30 -3 -13 -5 -24 -6 -24 -1 0
17 -45 21 -56 6 -9 -12 -17 -13 -40 -5 -22 9 -25 13 -14 20 11 7 10 9 -7 8
-14 -2 -19 -7 -15 -17 4 -11 1 -13 -12 -8 -10 4 -23 4 -29 0 -24 -15 -39 -12
-34 7 2 10 0 24 -5 31 -8 12 -9 11 -6 0 3 -8 -4 -23 -13 -32 -17 -17 -21 -17
-73 -1 -57 17 -74 35 -56 57 7 9 7 21 0 39 -12 33 -16 33 -23 0 -3 -18 -1 -24
9 -20 21 8 17 -2 -6 -14 -23 -12 -50 -3 -30 10 8 5 10 15 6 26 -6 15 -9 16
-16 4 -7 -11 -11 -12 -24 0 -15 12 -15 14 0 31 15 17 15 19 0 25 -9 3 -13 11
-9 17 3 6 1 7 -6 3 -9 -6 -9 -11 0 -22 16 -19 9 -24 -18 -13 -22 8 -23 39 -2
39 5 0 9 7 9 15 0 19 -14 19 -30 0 -19 -22 -33 -18 -28 8 4 19 0 23 -16 22
-27 -3 -46 13 -46 37 0 13 -5 18 -14 15 -8 -3 -16 2 -19 15 -4 13 -10 17 -18
12 -7 -4 -10 -3 -6 2 3 5 -1 18 -9 29 -8 11 -14 14 -14 6 0 -11 -3 -11 -15 -1
-16 14 -10 34 7 24 6 -4 8 -2 4 4 -3 6 -2 14 4 17 8 5 8 11 0 20 -9 11 -7 14
9 12 12 -1 21 -6 21 -12 0 -5 5 -3 10 5 6 10 10 11 10 3 0 -7 7 -13 16 -13 14
0 14 3 4 15 -7 9 -19 14 -27 11 -7 -3 -13 -2 -13 2 0 4 -9 13 -20 19 -16 11
-18 10 -14 -1 3 -8 1 -17 -4 -20 -6 -3 -8 -16 -5 -29 3 -12 2 -19 -2 -15 -5 4
-14 3 -21 -3 -8 -7 -14 -6 -20 2 -5 8 -3 10 7 4 8 -4 -5 10 -28 32 -24 21 -43
44 -43 51 0 6 -4 12 -9 12 -5 0 -11 9 -14 19 -3 13 0 18 8 15 24 -10 24 13 0
36 -19 17 -23 29 -18 52 4 21 2 28 -8 26 -10 -2 -13 6 -11 31 2 22 0 31 -7 26
-7 -4 -11 3 -11 19 0 14 5 28 10 31 14 9 12 25 -3 25 -9 0 -13 11 -12 30 1 16
-2 27 -6 25 -11 -7 -22 275 -16 420 3 77 9 131 15 133 6 2 8 10 5 18 -3 8 4
38 15 67 12 28 30 88 41 132 11 44 25 94 32 110 7 17 13 35 14 40 8 65 53 143
72 124 8 -8 13 -7 18 2 5 8 4 10 -3 5 -7 -4 -12 -3 -12 1 0 20 218 90 246 79
8 -3 14 -1 14 4 0 15 188 12 248 -4 28 -8 50 -10 47 -6 -3 5 3 9 12 10 10 1
34 2 55 3 20 1 34 5 32 9 -7 11 64 16 211 12 77 -2 159 -3 183 -3z m-1321
-804 c4 -7 9 -20 10 -30 3 -17 2 -17 -13 -3 -8 9 -20 16 -25 16 -5 0 -9 8 -9
18 0 14 -2 15 -10 2 -5 -8 -12 -11 -16 -7 -4 4 -14 1 -22 -6 -13 -10 -14 -9
-7 3 20 36 26 39 56 28 16 -5 32 -15 36 -21z m1766 -2 c9 -17 8 -18 -4 -9 -18
13 -27 12 -66 -9 -36 -19 -45 -7 -18 24 21 23 74 19 88 -6z m-1769 -87 c-3 -5
-10 -5 -16 -2 -7 4 -8 2 -4 -4 4 -6 13 -9 21 -5 9 3 15 -1 16 -8 1 -8 3 -30 5
-49 5 -48 -5 -102 -17 -94 -6 3 -1 -12 10 -35 14 -26 21 -57 20 -88 -1 -26 -3
-39 -6 -28 -2 11 -7 27 -10 35 -4 8 -7 17 -7 20 -2 5 -22 42 -43 75 -17 28
-35 67 -39 85 -12 55 -23 143 -19 151 3 4 25 -4 50 -18 24 -15 41 -31 39 -35z
m1772 25 c-3 -21 -8 -62 -12 -91 -3 -28 -10 -50 -14 -47 -5 3 -8 -3 -8 -12 1
-23 -41 -95 -52 -88 -5 3 -12 0 -16 -6 -4 -8 -3 -9 4 -5 15 9 15 12 -8 -54
l-20 -55 6 45 c3 25 8 56 10 70 7 36 7 40 -1 92 -8 48 11 141 27 132 4 -3 8 2
8 11 0 9 5 15 12 13 6 -2 20 4 30 14 29 29 40 22 34 -19z m-188 -398 c-3 -3
-9 2 -12 12 -6 14 -5 15 5 6 7 -7 10 -15 7 -18z m-146 -732 c26 -23 22 -34 -9
-29 -16 2 -34 5 -42 5 -11 1 -10 6 4 21 22 24 24 24 47 3z m-624 -52 c73 -3
139 -3 145 0 7 4 29 9 51 12 35 6 38 4 34 -16 -4 -21 0 -22 60 -24 36 -1 69
-6 74 -11 6 -6 -1 -21 -18 -41 -22 -27 -29 -30 -43 -19 -14 12 -15 11 -2 -5
12 -15 12 -20 2 -26 -7 -5 -12 -11 -12 -15 3 -24 0 -28 -14 -16 -13 11 -14 10
-10 -2 8 -20 -43 -54 -58 -39 -6 6 -16 11 -21 11 -6 0 -5 -4 3 -9 29 -18 -86
-41 -188 -37 -85 3 -96 5 -114 27 -11 13 -18 17 -14 8 5 -15 2 -16 -33 -2 -22
9 -37 20 -33 25 3 6 -4 7 -18 3 -13 -4 -21 -4 -17 0 4 5 3 14 -3 22 -6 7 -8
13 -3 13 4 0 -5 13 -21 30 -16 17 -24 30 -18 30 6 0 16 -7 24 -16 11 -14 13
-14 21 1 5 8 15 12 21 9 7 -4 8 -3 4 1 -10 12 -38 15 -31 4 7 -12 -2 -11 -29
4 -37 21 -57 39 -51 49 3 5 13 3 22 -4 12 -10 14 -10 8 0 -7 12 0 14 59 17 36
1 58 13 49 27 -4 7 2 8 17 3 13 -4 83 -10 157 -14z m657 -51 c3 -5 -1 -10 -10
-10 -9 0 -13 5 -10 10 3 6 8 10 10 10 2 0 7 -4 10 -10z m-1270 -10 c-3 -5 -16
-10 -28 -9 -20 1 -20 2 3 9 14 4 26 8 28 9 2 1 0 -3 -3 -9z m1355 -11 c9 -5 1
-6 -20 -3 -19 4 -39 11 -45 16 -12 11 41 0 65 -13z m-1413 -5 c-3 -3 -12 -4
-19 -1 -8 3 -5 6 6 6 11 1 17 -2 13 -5z m177 -74 c3 0 2 8 -1 18 -6 15 -5 15
11 2 17 -13 17 -15 -10 -37 -16 -12 -30 -21 -32 -19 -2 2 0 21 4 42 6 34 8 36
15 16 5 -12 11 -22 13 -22z m1084 -18 l11 -34 -34 29 c-35 29 -44 45 -22 41 6
-2 11 4 9 12 -6 28 24 -12 36 -48z m20 23 c-3 -3 -9 2 -12 12 -6 14 -5 15 5 6
7 -7 10 -15 7 -18z m-103 -25 c-3 -5 -12 -10 -18 -10 -7 0 -6 4 3 10 19 12 23
12 15 0z m-1058 -22 c-3 -8 -6 -5 -6 6 -1 11 2 17 5 13 3 -3 4 -12 1 -19z m75
0 c-7 -7 -12 -8 -12 -2 0 14 12 26 19 19 2 -3 -1 -11 -7 -17z m1013 12 c3 -5
1 -10 -4 -10 -6 0 -11 5 -11 10 0 6 2 10 4 10 3 0 8 -4 11 -10z m-1035 -24 c0
-2 -8 -10 -17 -17 -16 -13 -17 -12 -4 4 13 16 21 21 21 13z"/>
<path d="M1578 2293 c7 -3 16 -2 19 1 4 3 -2 6 -13 5 -11 0 -14 -3 -6 -6z"/>
<path d="M1848 2293 c6 -2 18 -2 25 0 6 3 1 5 -13 5 -14 0 -19 -2 -12 -5z"/>
<path d="M1268 2283 c6 -2 18 -2 25 0 6 3 1 5 -13 5 -14 0 -19 -2 -12 -5z"/>
<path d="M1018 2243 c7 -3 16 -2 19 1 4 3 -2 6 -13 5 -11 0 -14 -3 -6 -6z"/>
<path d="M937 2223 c-3 -5 6 -9 20 -10 19 -1 22 1 12 8 -17 11 -26 11 -32 2z"/>
<path d="M880 2169 c0 -5 5 -7 10 -4 6 3 10 8 10 11 0 2 -4 4 -10 4 -5 0 -10
-5 -10 -11z"/>
<path d="M840 2131 c0 -6 4 -13 10 -16 6 -3 7 1 4 9 -7 18 -14 21 -14 7z"/>
<path d="M1220 1940 c0 -5 19 -10 43 -10 23 0 59 -5 80 -11 46 -12 217 -27
211 -18 -5 9 132 21 159 14 16 -5 18 -4 8 4 -11 7 -8 10 15 14 16 3 -11 3 -61
0 -49 -3 -115 -6 -147 -7 -31 -1 -54 -4 -53 -7 6 -8 -95 7 -128 20 -35 14
-127 14 -127 1z"/>
<path d="M1107 1901 c-46 -6 -69 -28 -24 -24 41 4 187 -9 183 -16 -13 -21 275
-18 389 3 50 10 102 15 117 13 15 -2 24 1 21 6 -3 5 7 7 23 3 16 -3 36 -2 44
4 24 16 -91 12 -205 -6 -128 -21 -265 -28 -265 -15 0 6 -6 8 -13 5 -12 -4
-173 17 -207 28 -8 3 -36 2 -63 -1z"/>
<path d="M1029 1843 c-1 -5 -1 -12 0 -17 1 -4 -11 -6 -26 -3 -15 4 -22 4 -15
1 18 -8 -32 -46 -51 -38 -8 3 -18 1 -22 -5 -4 -7 1 -8 12 -4 17 6 16 5 -1 -16
-15 -16 -22 -19 -29 -9 -6 10 -8 9 -4 -3 3 -9 -4 -36 -15 -60 -18 -42 -20 -43
-34 -25 -8 11 -14 15 -14 9 0 -7 12 -21 28 -32 15 -12 33 -26 41 -33 12 -10
14 -9 8 6 -8 20 10 49 24 40 5 -3 6 1 4 8 -6 14 26 47 63 67 29 16 75 14 66
-1 -5 -8 -1 -8 10 1 11 9 20 11 24 5 4 -5 18 -10 32 -10 14 -1 58 -3 98 -5 76
-4 99 7 86 41 -4 8 -7 20 -7 27 0 7 -4 10 -9 7 -7 -4 -12 8 -10 26 0 3 -9 6
-21 6 -183 2 -237 5 -232 14 3 6 4 10 1 10 -3 0 -7 -3 -7 -7z"/>
<path d="M1309 1837 c5 -5 19 -7 32 -5 20 3 19 5 -9 9 -20 3 -29 2 -23 -4z"/>
<path d="M1676 1831 c3 -3 -10 -10 -28 -15 -25 -8 -36 -20 -44 -45 -7 -22 -13
-29 -17 -20 -3 9 -6 10 -6 2 -1 -7 10 -20 23 -28 20 -14 36 -14 112 -5 49 6
99 13 111 16 11 3 31 0 43 -6 15 -8 20 -8 16 -1 -19 30 42 -5 82 -47 13 -13
21 -30 18 -38 -3 -8 0 -11 8 -8 8 3 17 0 21 -5 3 -6 11 -9 16 -6 13 9 11 59
-3 73 -7 7 -9 12 -4 12 4 0 1 7 -8 15 -8 9 -13 23 -10 33 5 14 4 15 -5 2 -10
-14 -16 -7 -11 15 1 6 -1 7 -5 3 -4 -4 -30 6 -59 22 -45 25 -63 29 -153 32
-56 2 -99 1 -97 -1z"/>
<path d="M1528 1823 c7 -3 16 -2 19 1 4 3 -2 6 -13 5 -11 0 -14 -3 -6 -6z"/>
<path d="M1528 1803 c7 -3 16 -2 19 1 4 3 -2 6 -13 5 -11 0 -14 -3 -6 -6z"/>
<path d="M870 1580 c-8 -5 -10 -10 -5 -10 6 0 17 5 25 10 8 5 11 10 5 10 -5 0
-17 -5 -25 -10z"/>
<path d="M958 1529 c-19 -20 -10 -27 10 -7 9 9 12 9 12 0 0 -7 -12 -17 -26
-23 -15 -5 -24 -12 -21 -15 3 -4 -3 -15 -13 -27 -11 -11 -17 -24 -13 -30 3 -5
1 -12 -5 -16 -6 -4 -4 -12 6 -21 14 -13 15 -12 8 5 -6 18 -5 17 14 -2 18 -20
45 -29 72 -24 4 0 49 -6 100 -14 51 -9 101 -16 111 -16 9 0 15 -4 12 -9 -3 -5
14 2 37 14 44 23 51 26 67 26 17 0 19 26 3 61 -8 18 -14 38 -13 42 1 5 -3 6
-8 3 -16 -10 -23 12 -11 36 10 21 10 21 -9 -2 -11 -14 -21 -19 -21 -12 0 7 -5
10 -10 7 -7 -4 -9 3 -6 19 3 15 1 24 -5 21 -5 -4 -7 -10 -4 -15 10 -16 -10
-18 -35 -3 -17 10 -19 12 -5 8 16 -5 17 -4 8 6 -10 10 -15 9 -28 -1 -8 -7 -15
-9 -15 -4 0 12 -118 8 -152 -5 -19 -7 -29 -7 -34 1 -5 7 -3 8 6 3 9 -5 11 -4
6 3 -10 16 -18 14 -38 -9z m162 -39 c-37 -9 -60 -33 -60 -62 0 -15 -8 -18 -44
-18 -53 0 -65 13 -39 42 27 31 72 47 128 47 48 -1 48 -1 15 -9z m94 -14 c36
-15 76 -49 76 -65 0 -13 -68 -34 -86 -27 -10 4 -13 13 -9 26 6 20 -9 59 -29
72 -19 13 12 9 48 -6z m-64 -26 c0 -5 -5 -10 -11 -10 -5 0 -7 5 -4 10 3 6 8
10 11 10 2 0 4 -4 4 -10z"/>
<path d="M1759 1539 c-26 -4 -56 -12 -68 -18 -12 -7 -26 -9 -31 -6 -6 3 -10 1
-10 -5 0 -7 -9 -9 -22 -5 -15 4 -18 3 -10 -3 9 -6 6 -14 -13 -32 -14 -13 -25
-28 -25 -34 0 -6 -7 -24 -15 -39 -8 -15 -11 -26 -7 -24 4 3 18 0 32 -5 24 -10
24 -11 5 -18 -15 -6 -10 -8 20 -8 22 0 54 -1 70 -1 17 -1 50 3 75 8 62 13 172
22 140 11 l-25 -8 27 -1 c14 -1 28 2 30 7 2 4 24 17 51 30 44 22 65 38 32 26
-10 -4 -15 0 -15 13 0 10 -19 38 -42 61 -22 23 -36 42 -30 42 7 0 12 -3 12 -8
0 -4 10 -13 23 -21 21 -13 22 -13 5 6 -19 21 -24 38 -9 28 5 -3 12 -1 16 4 3
6 -6 7 -22 4 -16 -3 -33 -6 -40 -6 -7 0 -10 -4 -7 -9 3 -4 -2 -5 -10 -2 -9 3
-16 9 -16 13 0 8 -63 8 -121 0z m112 -49 c19 -6 46 -21 59 -36 21 -21 22 -27
10 -34 -8 -5 -32 -10 -52 -10 -30 0 -38 4 -38 18 0 29 -23 53 -60 62 l-35 8
40 1 c22 0 56 -4 76 -9z m-127 -8 c-21 -13 -35 -52 -28 -77 5 -20 3 -25 -13
-25 -33 0 -83 21 -83 35 0 13 36 41 80 62 28 13 62 17 44 5z"/>
<path d="M1500 1520 c-8 -5 -10 -10 -5 -10 6 0 17 5 25 10 8 5 11 10 5 10 -5
0 -17 -5 -25 -10z"/>
<path d="M1530 1512 c-14 -9 -28 -21 -31 -25 -4 -5 -9 -3 -11 4 -3 9 -6 8 -11
-4 -4 -10 -2 -16 5 -14 8 1 12 -27 13 -93 0 -52 5 -104 9 -114 8 -15 6 -18 -5
-11 -12 7 -12 6 -1 -7 7 -9 20 -15 29 -14 18 3 37 53 23 61 -12 8 -10 208 2
222 14 17 8 16 -22 -5z"/>
<path d="M1980 1521 c0 -6 4 -13 10 -16 6 -3 7 1 4 9 -7 18 -14 21 -14 7z"/>
<path d="M1366 1502 c-2 -4 -2 -48 0 -98 2 -51 -1 -106 -6 -125 -11 -38 -10
-40 22 -43 18 -2 24 3 25 23 5 51 7 127 5 182 -2 47 -5 58 -22 62 -11 3 -22 2
-24 -1z"/>
<path d="M2003 1474 c0 -16 13 -19 21 -5 3 5 0 11 -7 14 -8 3 -14 -1 -14 -9z"/>
<path d="M1559 1478 c-7 -23 -5 -39 4 -45 7 -3 9 -3 5 2 -4 4 0 14 10 22 16
12 16 13 -2 6 -13 -4 -17 -3 -12 5 4 7 5 12 2 12 -3 0 -6 -1 -7 -2z"/>
<path d="M985 1340 c-3 -6 1 -7 9 -4 18 7 21 14 7 14 -6 0 -13 -4 -16 -10z"/>
<path d="M1282 1053 c11 -14 1 -36 -13 -28 -5 4 -9 1 -9 -4 0 -6 5 -11 12 -11
6 0 9 -3 6 -6 -4 -3 -2 -20 4 -37 15 -51 16 -61 5 -74 -13 -18 1 -16 19 1 11
11 11 16 1 19 -6 3 2 4 18 4 23 -2 30 2 29 16 -3 26 25 20 32 -8 3 -14 9 -23
14 -20 11 7 46 -22 37 -31 -4 -5 -13 -2 -18 6 -8 11 -12 12 -16 3 -2 -7 -10
-13 -15 -13 -6 0 -8 3 -5 7 8 7 -11 33 -25 33 -5 0 -3 -10 3 -22 7 -13 12 -24
11 -25 -1 -2 -2 -6 -1 -10 1 -5 0 -21 0 -38 l-2 -30 14 25 c8 15 10 30 5 36
-5 7 -3 14 8 18 22 9 23 9 19 -19 -3 -27 19 -35 29 -10 3 10 -1 15 -12 16 -12
0 -11 3 6 10 13 5 20 13 17 19 -3 5 -1 10 4 10 6 0 11 -7 11 -15 0 -9 6 -12
16 -8 10 4 12 9 5 16 -7 7 -5 14 7 23 14 11 22 8 50 -19 24 -24 32 -27 32 -14
0 9 -7 17 -16 17 -8 0 -12 5 -9 10 4 6 11 8 16 5 5 -4 9 -1 9 5 0 7 6 10 13 7
8 -3 14 0 15 6 1 7 5 28 9 47 11 45 -5 100 -30 100 -15 0 -18 -7 -16 -40 2
-21 0 -42 -4 -46 -4 -4 -7 -3 -7 2 0 5 -13 11 -30 12 -24 2 -32 -3 -45 -28
-20 -39 -32 -38 -74 5 -38 39 -50 40 -69 4 -11 -21 -12 -18 -9 33 l4 58 -33
-3 c-24 -1 -30 -5 -22 -14z m258 -112 c0 -5 3 -18 7 -28 6 -16 5 -16 -10 -4
-19 15 -23 41 -7 41 6 0 10 -4 10 -9z"/>
<path d="M766 977 c11 -20 12 -32 5 -41 -14 -17 -2 -29 15 -15 10 8 11 16 4
29 -6 12 -7 21 0 25 15 9 1 31 -19 31 -18 0 -18 -2 -5 -29z"/>
<path d="M1437 983 c-4 -3 -7 -11 -7 -17 0 -6 5 -5 12 2 6 6 9 14 7 17 -3 3
-9 2 -12 -2z"/>
<path d="M2130 952 c-18 -8 -20 -54 -3 -59 16 -6 37 33 23 42 -6 4 -8 11 -5
16 7 10 6 10 -15 1z m14 -37 c-4 -8 -11 -15 -16 -15 -6 0 -5 6 2 15 7 8 14 15
16 15 2 0 1 -7 -2 -15z"/>
<path d="M1626 933 c-6 -14 -5 -15 5 -6 7 7 10 15 7 18 -3 3 -9 -2 -12 -12z"/>
<path d="M807 925 c-4 -8 -3 -16 1 -19 4 -3 9 4 9 15 2 23 -3 25 -10 4z"/>
<path d="M1246 903 c5 -5 12 -12 16 -18 4 -6 8 -2 8 8 0 9 -7 17 -17 17 -9 0
-12 -3 -7 -7z"/>
<path d="M2055 899 c-11 -16 -1 -19 13 -3 7 8 8 14 3 14 -5 0 -13 -5 -16 -11z"/>
<path d="M1307 872 c-24 -23 -29 -25 -38 -12 -8 12 -9 10 -4 -7 5 -19 3 -21
-21 -17 -15 3 -31 7 -35 9 -4 3 -12 -2 -19 -9 -9 -12 -6 -14 18 -11 21 3 32
-1 36 -12 4 -9 4 -18 1 -21 -3 -3 -5 0 -5 6 0 7 -9 12 -21 12 -11 0 -18 -4
-15 -9 3 -5 3 -23 0 -41 -4 -19 -10 -27 -14 -20 -6 9 -9 9 -15 0 -7 -11 30
-45 50 -45 6 0 10 -6 10 -13 0 -8 17 -24 37 -36 21 -13 35 -26 31 -30 -4 -4 0
-4 10 0 9 3 23 1 30 -4 8 -7 58 -10 127 -8 96 2 122 6 158 25 23 12 48 33 54
46 9 19 14 22 24 14 8 -6 11 -16 7 -23 -4 -6 -1 -6 9 2 10 8 14 24 12 43 -3
24 -1 30 11 25 8 -3 15 0 15 6 0 6 7 5 18 -3 15 -13 16 -12 3 4 -7 9 -27 17
-43 17 -22 0 -29 4 -25 14 3 8 -1 17 -10 20 -18 7 -46 -12 -37 -25 3 -5 -2 -6
-10 -3 -9 4 -16 1 -16 -6 0 -15 -67 -5 -89 13 -11 9 -13 9 -8 1 10 -17 -24
-23 -120 -22 -65 0 -83 3 -83 14 0 8 -4 14 -10 14 -5 0 -7 -6 -4 -14 4 -11 0
-13 -15 -9 -12 3 -18 10 -14 17 3 6 0 6 -8 -1 -22 -21 -34 -15 -14 7 16 17 16
20 3 15 -11 -4 -16 -2 -14 7 2 17 48 64 59 60 8 -2 22 26 15 33 -2 2 -16 -8
-31 -23z m165 -163 c140 -1 172 -4 138 -11 -69 -14 -316 -6 -332 11 -9 9 -9
12 -1 7 7 -4 94 -7 195 -7z m60 -60 c-24 -4 -76 -5 -115 0 -70 8 -69 8 43 9
90 0 106 -2 72 -9z"/>
<path d="M1510 881 c0 -11 5 -23 10 -26 6 -3 10 -1 10 6 0 8 5 8 18 -2 9 -7 6
-1 -7 14 -29 32 -31 33 -31 8z"/>
<path d="M807 884 c-3 -3 -3 -12 -1 -19 3 -7 1 -16 -4 -19 -13 -8 -3 -54 14
-60 8 -3 11 0 7 10 -3 8 1 14 8 15 8 0 3 5 -10 10 -22 9 -23 11 -7 27 9 10 16
24 16 30 0 13 -13 16 -23 6z"/>
<path d="M2070 872 c0 -11 6 -22 14 -25 10 -4 12 0 9 14 -7 27 -23 34 -23 11z"/>
<path d="M1230 860 c0 -5 5 -10 10 -10 6 0 10 5 10 10 0 6 -4 10 -10 10 -5 0
-10 -4 -10 -10z"/>
<path d="M1635 850 c9 -29 -2 -42 -26 -29 -33 17 -72 22 -67 8 2 -7 12 -13 23
-15 10 -1 21 -8 25 -14 6 -9 9 -9 12 0 3 9 8 8 20 -4 9 -9 23 -16 30 -16 10 0
9 3 -2 10 -10 7 -11 10 -2 10 8 0 10 8 6 25 -4 15 -2 25 5 25 6 0 11 -9 11
-20 0 -11 5 -20 10 -20 6 0 10 5 10 11 0 5 5 7 10 4 6 -4 8 -10 5 -15 -7 -11
19 -20 34 -11 7 5 3 12 -14 21 -14 7 -25 17 -25 22 0 5 -4 7 -9 4 -5 -3 -14 1
-21 9 -19 23 -43 19 -35 -5z"/>
<path d="M1341 853 c-1 -7 -7 -10 -14 -7 -17 6 -41 -21 -32 -36 10 -16 27 0
21 19 -5 12 -2 11 9 -3 13 -17 15 -17 21 -3 3 9 4 22 1 29 -4 10 -6 10 -6 1z"/>
<path d="M1497 841 c3 -12 9 -21 14 -21 14 0 11 16 -5 29 -12 10 -13 8 -9 -8z"/>
<path d="M1597 854 c-8 -8 1 -24 14 -24 5 0 9 7 9 15 0 15 -12 20 -23 9z"/>
<path d="M1455 839 c-10 -15 3 -25 16 -12 7 7 7 13 1 17 -6 3 -14 1 -17 -5z"/>
<path d="M1155 831 c-3 -5 2 -16 10 -24 8 -9 15 -24 15 -34 1 -17 1 -17 11 0
9 15 7 22 -10 34 -12 8 -19 19 -16 24 4 5 4 9 1 9 -3 0 -7 -4 -11 -9z"/>
<path d="M2125 829 c-4 -6 -5 -12 -2 -15 2 -3 7 2 10 11 7 17 1 20 -8 4z"/>
<path d="M863 823 c-10 -3 -10 -7 0 -18 14 -15 27 -10 27 11 0 14 -6 16 -27 7z"/>
<path d="M1969 828 c-5 -17 -4 -46 3 -42 4 3 8 0 8 -6 0 -6 5 -8 10 -5 6 4 4
12 -5 21 -8 9 -13 20 -10 25 4 5 4 9 1 9 -3 0 -6 -1 -7 -2z"/>
<path d="M2057 812 c-12 -13 -14 -21 -6 -29 8 -8 8 -17 0 -32 -14 -25 2 -29
25 -6 9 9 11 15 4 15 -6 0 -8 5 -5 10 3 6 1 10 -5 10 -6 0 -8 5 -5 10 4 6 11
8 16 5 5 -4 9 -1 9 4 0 6 -6 11 -12 12 -7 0 -4 4 7 9 15 6 16 9 4 9 -9 1 -23
-7 -32 -17z"/>
<path d="M2000 806 c5 -5 10 -18 10 -28 0 -10 5 -18 10 -18 6 0 10 9 10 20 0
11 -5 20 -11 20 -5 0 -8 4 -5 8 3 5 -2 9 -10 9 -10 0 -11 -4 -4 -11z"/>
<path d="M1416 795 c-11 -8 -17 -17 -14 -20 2 -3 13 4 23 15 21 23 18 25 -9 5z"/>
<path d="M855 771 c-3 -5 -1 -12 5 -16 5 -3 10 1 10 9 0 18 -6 21 -15 7z"/>
<path d="M1146 773 c-12 -12 -6 -33 9 -33 8 0 15 6 15 14 0 17 -14 28 -24 19z"/>
<path d="M1950 767 c0 -2 6 -10 14 -16 11 -9 16 -9 22 1 4 7 4 10 -1 6 -4 -4
-14 -3 -22 3 -7 6 -13 9 -13 6z"/>
<path d="M1028 743 c7 -3 16 -2 19 1 4 3 -2 6 -13 5 -11 0 -14 -3 -6 -6z"/>
<path d="M1997 743 c-10 -9 -8 -33 2 -33 5 0 11 9 14 20 5 20 -3 26 -16 13z"/>
<path d="M972 700 c-7 -12 -10 -26 -6 -32 4 -7 3 -8 -4 -4 -8 4 -10 2 -6 -8
10 -27 32 -6 31 30 -1 19 -1 34 -2 34 0 0 -6 -9 -13 -20z"/>
<path d="M1018 698 c-3 -16 1 -36 8 -45 13 -17 13 -17 13 2 -1 11 -4 31 -8 45
l-7 25 -6 -27z"/>
<path d="M1047 699 c3 -10 12 -24 19 -30 12 -10 13 -8 7 6 -5 14 -3 17 10 12
9 -3 17 -3 17 1 0 4 -13 12 -29 18 -25 10 -28 9 -24 -7z"/>
<path d="M1121 711 c-11 -7 -9 -10 7 -15 11 -4 23 -13 26 -21 9 -24 24 -17 22
9 0 13 -4 22 -8 19 -5 -2 -8 1 -8 6 0 13 -20 14 -39 2z"/>
<path d="M1747 706 c-6 -14 1 -26 14 -26 4 0 7 9 6 20 -1 23 -12 26 -20 6z"/>
<path d="M1940 706 c0 -8 6 -16 14 -19 10 -4 12 0 9 14 -6 22 -23 26 -23 5z"/>
<path d="M1114 677 c-8 -21 2 -35 16 -21 5 5 6 15 0 24 -8 12 -10 12 -16 -3z"/>
<path d="M1193 675 c0 -8 4 -12 9 -9 5 3 6 10 3 15 -9 13 -12 11 -12 -6z"/>
<path d="M1691 664 c0 -11 3 -14 6 -6 3 7 2 16 -1 19 -3 4 -6 -2 -5 -13z"/>
<path d="M1874 658 c-26 -21 -27 -21 -20 -3 4 11 3 16 -1 11 -15 -14 -9 -55 8
-59 9 -2 16 1 16 7 -1 41 3 46 28 36 23 -9 25 -8 15 10 -13 25 -11 25 -46 -2z"/>
<path d="M1216 662 c-3 -5 8 -13 25 -19 35 -14 37 -10 5 11 -14 9 -27 12 -30
8z"/>
<path d="M1947 656 c-3 -8 -2 -18 3 -21 13 -8 24 15 12 27 -6 6 -11 4 -15 -6z"/>
<path d="M1780 641 c-13 -26 -13 -44 2 -39 6 2 12 16 12 31 2 32 0 33 -14 8z"/>
<path d="M1175 640 c-3 -5 1 -20 9 -32 9 -12 16 -19 16 -14 0 5 7 3 15 -4 9
-7 13 -20 10 -29 -4 -11 -3 -13 4 -6 5 6 7 23 4 38 -4 22 -9 26 -26 21 -15 -5
-19 -3 -14 10 7 18 -8 32 -18 16z"/>
<path d="M1070 621 c0 -7 -4 -9 -10 -6 -5 3 -10 2 -10 -3 0 -14 25 -22 39 -13
9 6 8 11 -4 21 -11 9 -15 9 -15 1z"/>
<path d="M1110 613 c0 -12 5 -25 10 -28 13 -8 13 15 0 35 -8 12 -10 11 -10 -7z"/>
<path d="M1253 613 c9 -2 15 -9 12 -14 -3 -5 1 -6 10 -2 13 5 14 7 3 14 -7 5
-20 8 -28 8 -11 -1 -10 -3 3 -6z"/>
<path d="M1020 596 c0 -8 5 -18 10 -21 6 -3 10 3 10 14 0 12 -4 21 -10 21 -5
0 -10 -6 -10 -14z"/>
<path d="M1618 599 c6 -9 8 -20 4 -25 -4 -4 2 -2 13 6 30 21 32 24 14 17 -9
-3 -23 0 -30 6 -11 10 -11 9 -1 -4z"/>
<path d="M1157 580 c3 -11 9 -20 14 -20 5 0 9 9 9 20 0 11 -6 20 -14 20 -9 0
-12 -7 -9 -20z"/>
<path d="M1566 591 c5 -11 3 -13 -10 -8 -9 4 -15 3 -12 -2 7 -11 -18 -21 -54
-21 -19 0 -30 6 -33 18 -4 14 -5 14 -6 1 -1 -11 -10 -16 -27 -16 -19 0 -24 3
-19 16 5 13 4 14 -6 4 -14 -14 -33 -18 -25 -5 2 4 -4 8 -15 8 -10 0 -19 -4
-19 -9 0 -4 -6 -5 -12 -2 -7 4 -2 -3 11 -14 18 -16 20 -21 7 -21 -9 0 -16 5
-16 10 0 6 -7 10 -15 10 -9 0 -12 -6 -9 -15 4 -8 15 -15 25 -15 21 0 25 -20 8
-37 -7 -7 -6 -12 5 -16 10 -4 13 -1 10 7 -3 7 2 19 10 26 9 7 13 17 9 23 -4 6
-1 7 6 3 7 -5 10 -14 7 -22 -8 -21 10 -26 25 -7 10 12 10 14 2 9 -7 -4 -13 -2
-13 3 0 17 32 13 46 -6 12 -17 14 -17 28 2 14 17 17 18 26 5 6 -10 10 -11 10
-2 0 6 7 12 16 12 8 0 12 -4 9 -10 -3 -5 -1 -10 4 -10 6 0 11 -4 11 -9 0 -6
-9 -8 -19 -6 -18 3 -38 -21 -26 -33 3 -3 5 0 5 8 0 10 3 10 15 0 8 -7 15 -8
15 -3 0 6 12 22 27 37 14 14 23 29 20 33 -4 3 -7 1 -7 -5 0 -7 -4 -12 -10 -12
-18 0 -10 20 11 28 l20 8 -21 24 c-12 14 -18 19 -14 11z"/>
<path d="M1088 573 c7 -3 16 -2 19 1 4 3 -2 6 -13 5 -11 0 -14 -3 -6 -6z"/>
<path d="M1260 560 c6 -11 15 -20 21 -20 6 0 6 7 -1 20 -6 11 -15 20 -21 20
-6 0 -6 -7 1 -20z"/>
<path d="M1710 565 c-17 -21 -8 -28 15 -11 11 8 14 15 8 19 -6 4 -16 0 -23 -8z"/>
<path d="M1757 555 c-5 -10 0 -15 14 -15 12 0 19 5 17 12 -6 18 -25 20 -31 3z"/>
<path d="M1640 539 c0 -11 5 -17 10 -14 6 3 10 13 10 21 0 8 -4 14 -10 14 -5
0 -10 -9 -10 -21z"/>
<path d="M1797 541 c-5 -22 1 -33 14 -25 12 7 12 44 0 44 -5 0 -11 -9 -14 -19z"/>
<path d="M1233 538 c-16 -21 -22 -58 -10 -55 6 1 13 -8 15 -20 2 -13 8 -23 13
-23 14 0 11 21 -6 40 -12 13 -13 23 -6 44 11 28 9 33 -6 14z"/>
<path d="M1168 516 c-4 -17 -1 -23 9 -19 14 6 18 43 4 43 -5 0 -11 -11 -13
-24z"/>
<path d="M1723 520 c4 -25 13 -34 26 -26 7 5 7 13 -2 26 -15 26 -28 26 -24 0z"/>
<path d="M1287 523 c-11 -10 -8 -45 2 -38 6 3 9 14 8 25 -1 23 -1 22 -10 13z"/>
<path d="M1595 509 c-8 -23 -1 -34 14 -25 6 4 7 14 4 23 -5 12 -3 14 7 8 9 -5
11 -4 6 3 -11 18 -24 14 -31 -9z"/>
<path d="M1690 509 c0 -18 2 -19 15 -9 15 12 12 30 -6 30 -5 0 -9 -10 -9 -21z"/>
<path d="M1640 479 c7 -11 9 -33 5 -47 l-6 -27 16 22 c14 21 14 25 -1 48 -20
30 -29 33 -14 4z"/>
<path d="M1299 473 c-13 -16 -12 -17 4 -4 16 13 21 21 13 21 -2 0 -10 -8 -17
-17z"/>
<path d="M1760 469 c0 -11 5 -17 10 -14 6 3 10 13 10 21 0 8 -4 14 -10 14 -5
0 -10 -9 -10 -21z"/>
<path d="M1470 471 c0 -6 5 -13 10 -16 6 -3 10 1 10 9 0 9 -4 16 -10 16 -5 0
-10 -4 -10 -9z"/>
<path d="M1706 453 c1 -13 -2 -23 -7 -23 -4 0 -13 -8 -18 -18 -8 -16 -6 -18
12 -17 12 1 22 8 22 17 0 8 8 23 18 32 20 20 15 35 -12 33 -12 -1 -17 -8 -15
-24z"/>
<path d="M1412 458 c-8 -8 -8 -15 -1 -24 15 -18 1 -38 -16 -24 -22 18 -70 7
-71 -17 -2 -28 -13 -44 -27 -37 -7 3 -3 -1 7 -10 22 -18 36 -13 30 12 -2 9 3
26 11 37 13 16 17 17 24 6 5 -8 14 -10 22 -6 11 6 11 5 3 -4 -12 -13 -8 -51 5
-51 15 0 21 13 11 25 -6 7 -1 23 15 48 27 38 35 64 10 31 -14 -18 -14 -18 -8
4 6 25 2 27 -15 10z"/>
<path d="M1620 461 c0 -6 4 -13 10 -16 6 -3 7 1 4 9 -7 18 -14 21 -14 7z"/>
<path d="M1320 456 c0 -2 7 -9 15 -16 12 -10 15 -10 15 4 0 9 -7 16 -15 16 -8
0 -15 -2 -15 -4z"/>
<path d="M1554 436 c-7 -19 4 -35 14 -21 9 12 42 16 42 5 0 -5 -6 -11 -12 -13
-7 -3 -3 -6 10 -6 13 -1 22 5 22 14 0 14 -12 20 -34 16 -4 -1 -14 3 -22 10
-11 9 -15 8 -20 -5z"/>
<path d="M1275 431 c-7 -12 12 -24 25 -16 11 7 4 25 -10 25 -5 0 -11 -4 -15
-9z"/>
<path d="M1450 425 c-7 -9 -8 -15 -2 -15 5 0 12 7 16 15 3 8 4 15 2 15 -2 0
-9 -7 -16 -15z"/>
<path d="M1517 433 c-8 -16 9 -48 26 -50 17 -1 17 1 -2 21 -12 12 -18 26 -14
29 3 4 4 7 0 7 -3 0 -8 -3 -10 -7z"/>
<path d="M1458 399 c-7 -4 -15 -6 -19 -3 -4 2 -10 0 -13 -5 -12 -18 14 -22 31
-5 16 15 17 15 23 -2 7 -18 7 -18 18 2 9 17 7 20 -9 20 -11 0 -25 -4 -31 -7z"/>
<path d="M1280 396 c0 -2 8 -10 18 -17 15 -13 16 -12 3 4 -13 16 -21 21 -21
13z"/>
<path d="M1230 381 c0 -15 16 -22 35 -15 13 5 14 8 3 15 -18 12 -38 11 -38 0z"/>
<path d="M1607 359 c3 -10 11 -15 19 -12 20 8 17 29 -5 29 -12 0 -17 -6 -14
-17z"/>
<path d="M1501 354 c0 -11 3 -14 6 -6 3 7 2 16 -1 19 -3 4 -6 -2 -5 -13z"/>
<path d="M606 1357 c3 -10 9 -15 12 -12 3 3 0 11 -7 18 -10 9 -11 8 -5 -6z"/>
<path d="M601 1294 c0 -11 3 -14 6 -6 3 7 2 16 -1 19 -3 4 -6 -2 -5 -13z"/>
<path d="M2310 1410 c-8 -5 -10 -10 -5 -10 6 0 17 5 25 10 8 5 11 10 5 10 -5
0 -17 -5 -25 -10z"/>
<path d="M2335 1279 c-4 -6 -5 -12 -2 -15 2 -3 7 2 10 11 7 17 1 20 -8 4z"/>
<path d="M2295 1269 c-4 -6 -5 -12 -2 -15 2 -3 7 2 10 11 7 17 1 20 -8 4z"/>
<path d="M1348 233 c7 -3 16 -2 19 1 4 3 -2 6 -13 5 -11 0 -14 -3 -6 -6z"/>
<path d="M1207 109 c7 -7 15 -10 18 -7 3 3 -2 9 -12 12 -14 6 -15 5 -6 -5z"/>
<path d="M808 133 c7 -3 16 -2 19 1 4 3 -2 6 -13 5 -11 0 -14 -3 -6 -6z"/>
</g>
</svg>
